<svg aria-hidden="true" style="position: absolute; width: 0; height: 0; overflow: hidden;" version="1.1" xmlns="http://www.w3.org/2000/svg" xmlns:xlink="http://www.w3.org/1999/xlink">
<defs>
<symbol id="icon-mail" viewBox="0 0 39 32">
<path d="M37.545 1.406h-35.455c-0.754 0-1.364 0.609-1.364 1.364v27.273c0 0.754 0.609 1.364 1.364 1.364h35.455c0.754 0 1.364-0.609 1.364-1.364v-27.273c0-0.754-0.609-1.364-1.364-1.364zM35.841 6.128v22.21h-32.045v-22.21l-1.176-0.916 1.675-2.152 1.824 1.419h27.405l1.824-1.419 1.675 2.152-1.18 0.916zM33.523 4.474l-13.705 10.653-15.528-12.072-1.675 2.152 1.176 0.916 14.557 11.318c0.419 0.325 0.934 0.502 1.464 0.502s1.045-0.177 1.464-0.502l15.741-12.23-1.675-2.152-1.82 1.415z"></path>
</symbol>
<symbol id="icon-phone" viewBox="0 0 20 32">
<path d="M16.040 0.23h-11.313c-2.347 0-4.242 1.895-4.242 4.242v22.626c0 2.348 1.895 4.242 4.242 4.242h11.313c2.347 0 4.242-1.895 4.242-4.242v-22.626c0-2.347-1.895-4.242-4.242-4.242zM13.212 28.513h-5.657v-1.414h5.657v1.414zM17.808 24.271h-14.848v-19.798h14.848v19.798z"></path>
</symbol>
<symbol id="icon-gps" viewBox="0 0 26 32">
<path d="M13.092 19.342c3.387 0 6.141-2.754 6.141-6.141s-2.754-6.141-6.141-6.141-6.141 2.754-6.141 6.141c0 3.387 2.754 6.141 6.141 6.141zM13.092 10.129c1.693 0 3.071 1.377 3.071 3.071s-1.377 3.071-3.071 3.071c-1.693 0-3.071-1.377-3.071-3.071s1.377-3.071 3.071-3.071z"></path>
<path d="M11.877 31.339c0.26 0.186 0.571 0.285 0.89 0.285s0.631-0.1 0.89-0.285c0.467-0.33 11.437-8.251 11.392-18.139 0-6.772-5.51-12.283-12.283-12.283s-12.283 5.51-12.283 12.275c-0.045 9.895 10.926 17.816 11.392 18.146zM12.768 3.988c5.081 0 9.212 4.132 9.212 9.22 0.032 6.814-6.737 12.932-9.212 14.939-2.473-2.008-9.244-8.128-9.212-14.947 0-5.081 4.132-9.212 9.212-9.212z"></path>
</symbol>
<symbol id="icon-twitter" viewBox="0 0 39 32">
<path d="M38.474 4.539c-1.4 0.604-2.923 1.038-4.492 1.208 1.629-0.968 2.849-2.497 3.431-4.3-1.529 0.909-3.203 1.547-4.95 1.885-0.73-0.78-1.613-1.402-2.593-1.826s-2.038-0.642-3.107-0.64c-4.323 0-7.799 3.504-7.799 7.804 0 0.604 0.073 1.208 0.192 1.789-6.473-0.338-12.246-3.431-16.084-8.165-0.699 1.194-1.066 2.554-1.061 3.939 0 2.708 1.377 5.096 3.477 6.5-1.237-0.049-2.446-0.389-3.527-0.993v0.096c0 3.792 2.681 6.935 6.253 7.658-0.671 0.174-1.361 0.263-2.054 0.265-0.508 0-0.988-0.050-1.473-0.119 0.988 3.092 3.865 5.338 7.292 5.412-2.681 2.1-6.038 3.335-9.684 3.335-0.654 0-1.258-0.023-1.885-0.096 3.458 2.219 7.561 3.499 11.98 3.499 14.345 0 22.195-11.884 22.195-22.2 0-0.338 0-0.677-0.023-1.015 1.519-1.112 2.85-2.488 3.911-4.035z"></path>
</symbol>
<symbol id="icon-facebook" viewBox="0 0 32 32">
<path d="M29.801 0.267h-28.566c-0.687 0-1.242 0.555-1.242 1.242v28.566c0 0.687 0.555 1.242 1.242 1.242h28.566c0.687 0 1.242-0.555 1.242-1.242v-28.566c0-0.687-0.555-1.242-1.242-1.242zM26.215 9.33h-2.48c-1.945 0-2.321 0.924-2.321 2.282v2.992h4.642l-0.605 4.685h-4.037v12.028h-4.84v-12.024h-4.048v-4.689h4.048v-3.454c0-4.009 2.449-6.195 6.028-6.195 1.716 0 3.187 0.128 3.617 0.186v4.188h-0.004z"></path>
</symbol>
<symbol id="icon-linkedIn" viewBox="0 0 32 32">
<path d="M30.755 0.267h-28.566c-0.687 0-1.242 0.555-1.242 1.242v28.566c0 0.687 0.555 1.242 1.242 1.242h28.566c0.687 0 1.242-0.555 1.242-1.242v-28.566c0-0.687-0.555-1.242-1.242-1.242zM10.157 26.726h-4.607v-14.819h4.607v14.819zM7.856 9.881c-0.528 0-1.044-0.157-1.484-0.45s-0.781-0.71-0.984-1.198c-0.202-0.488-0.255-1.025-0.152-1.543s0.357-0.994 0.731-1.367c0.373-0.373 0.849-0.628 1.367-0.731s1.055-0.050 1.543 0.152c0.488 0.202 0.905 0.544 1.198 0.984s0.45 0.955 0.45 1.484c-0.004 1.475-1.199 2.67-2.67 2.67zM27.406 26.726h-4.603v-7.208c0-1.719-0.031-3.928-2.395-3.928-2.395 0-2.764 1.871-2.764 3.804v7.332h-4.599v-14.819h4.417v2.026h0.062c0.613-1.164 2.115-2.395 4.359-2.395 4.665 0 5.523 3.070 5.523 7.060v8.127z"></path>
</symbol>
<symbol id="icon-openType" viewBox="0 0 31 32">
<path d="M9.603 0.506c2.524 0 4.945 1.003 6.73 2.788s2.788 4.206 2.788 6.73c0 2.302-0.813 4.413-2.18 6.057h14.294v15.574h-15.574v-14.294c-1.644 1.367-3.755 2.18-6.057 2.18-2.524 0-4.945-1.003-6.73-2.788s-2.788-4.206-2.788-6.73c0-2.524 1.003-4.945 2.788-6.73s4.206-2.788 6.73-2.788z"></path>
</symbol>
<symbol id="icon-design" viewBox="0 0 34 32">
<path d="M13.952 31.084c3.091-1.215 2.414-4.567 0.851-6.685-1.545-2.171-3.681-3.664-5.834-5.105-1.536-0.968-2.908-2.176-4.063-3.577-0.486-0.573-1.476-1.632-0.469-1.841 1.024-0.208 2.796 0.799 3.699 1.181 1.58 0.66 3.143 1.424 4.602 2.327l1.754-2.952c-2.709-1.789-6.182-3.369-9.412-3.838-1.841-0.278-3.785 0.104-4.411 2.101-0.556 1.719 0.33 3.456 1.337 4.81 2.379 3.178 6.078 4.706 8.838 7.449 0.59 0.573 1.302 1.25 1.65 2.049 0.365 0.764 0.278 0.816-0.538 0.816-2.153 0-4.845-1.684-6.598-2.796l-1.754 2.952c2.657 1.632 7.102 4.185 10.349 3.108zM33.21 3.995c0.382-0.382 0.382-1.007 0-1.372l-2.257-2.257c-0.182-0.175-0.425-0.273-0.677-0.273s-0.495 0.098-0.677 0.273l-1.771 1.771 3.612 3.612 1.771-1.754zM16.123 13.841v3.612h3.612l10.679-10.679-3.612-3.612-10.679 10.679z"></path>
</symbol>
<symbol id="icon-pencil" viewBox="0 0 33 32">
<path d="M32.774 3.327l-2.319-2.319c-0.64-0.675-1.765-0.675-2.44 0l-15.505 15.505 4.759 4.759 15.505-15.505c0.675-0.675 0.675-1.8 0-2.44zM9.049 19.542c-1.377 0-2.697 0.547-3.671 1.521s-1.521 2.294-1.521 3.671c0 2.267-2.007 3.461-3.461 3.461 1.592 2.111 4.326 3.461 6.922 3.461 1.836 0 3.596-0.729 4.895-2.027s2.027-3.059 2.027-4.895c0-1.377-0.547-2.697-1.521-3.671s-2.294-1.521-3.671-1.521z"></path>
</symbol>
</defs>
</svg>
